<svg width="293" height="280" viewBox="0 0 293 280" fill="none" xmlns="http://www.w3.org/2000/svg">
<path d="M144.521 87.6229C143.021 88.1846 142.365 87.4356 142.552 85.3761C142.927 83.3166 143.677 80.789 144.802 77.7934C145.927 74.7977 147.052 71.8021 148.176 68.8064C149.489 65.6235 150.239 63.2832 150.426 61.7854C141.052 71.7085 131.679 83.5975 122.305 97.4524C112.931 111.12 103.651 125.724 94.4652 141.264C85.4664 156.804 76.6552 172.718 68.0314 189.007C59.5951 205.109 51.6274 220.368 44.1285 234.784C37.1919 235.346 31.3802 234.41 26.6934 231.976C22.0065 229.542 18.0696 226.64 14.8825 223.27C11.508 219.9 8.78964 216.436 6.72743 212.879C4.47774 209.134 2.41553 206.232 0.540789 204.173C-0.396579 203.049 -0.115368 200.053 1.38442 195.186C2.69674 190.13 4.85269 183.952 7.85227 176.65C10.6644 169.161 13.9452 160.736 17.6946 151.374C21.2567 142.013 24.8187 132.464 28.3807 122.728C31.9427 112.805 35.1297 103.069 37.9418 93.5206C40.9414 83.7847 43.0036 74.8913 44.1285 66.8405C45.4408 58.6025 45.6282 51.5814 44.6909 45.7773C43.7535 39.9732 41.2226 35.9478 37.0982 33.7011C37.6606 31.8288 38.598 29.8629 39.9103 27.8034C41.2226 25.7439 42.8161 23.8716 44.6909 22.1866C46.5656 20.3143 48.6278 18.8164 50.8775 17.6931C53.1272 16.5697 55.5644 16.008 58.189 16.008C68.1251 16.008 75.4366 18.9101 80.1234 24.7141C84.8103 30.5182 87.5287 38.101 88.2786 47.4624C89.0285 56.8238 88.1848 67.4958 85.7477 79.4784C83.3105 91.2738 79.936 103.35 75.6241 115.707C71.4996 127.877 66.8128 139.672 61.5635 151.093C56.3143 162.514 51.2525 172.531 46.3781 181.143C51.8149 171.595 58.189 160.267 65.5005 147.161C72.9994 133.868 81.717 119.545 91.6531 104.193C101.589 88.6526 112.744 72.3638 125.117 55.326C137.678 38.2882 151.738 21.1568 167.299 3.9318C169.736 3.37011 172.267 2.99565 174.891 2.80842C177.704 2.43397 179.86 1.49783 181.359 0C185.109 6.92745 189.139 12.5443 193.451 16.8506C197.763 20.9696 202.638 24.995 208.074 28.9268C203.575 41.4711 199.076 53.3601 194.576 64.5938C190.264 75.6403 185.859 86.4059 181.359 96.8907C177.047 107.188 172.736 117.299 168.424 127.222C164.112 137.145 159.8 147.068 155.488 156.991C161.3 147.817 168.517 136.583 177.141 123.29C185.765 109.809 195.139 95.9545 205.262 81.7252C215.573 67.4958 226.353 53.8281 237.601 40.7222C248.85 27.429 260.005 16.4761 271.066 7.86359C273.315 8.79973 275.565 10.7656 277.815 13.7613C280.064 16.5697 282.127 19.7526 284.001 23.3099C286.063 26.8673 287.844 30.5182 289.344 34.2628C290.844 38.0074 292.063 41.1902 293 43.8114C287.376 57.2919 281.095 70.6787 274.159 83.9719C267.222 97.0779 260.38 110.465 253.63 124.132C247.069 137.8 241.163 151.842 235.914 166.259C230.665 180.488 227.009 195.373 224.947 210.913C225.134 211.662 225.416 211.381 225.791 210.07C226.353 208.76 226.822 207.168 227.197 205.296C227.759 203.236 228.228 201.27 228.603 199.398C229.165 197.526 229.54 196.309 229.728 195.747C229.165 200.054 228.134 205.577 226.634 212.317C225.322 219.057 224.01 225.985 222.697 233.099C221.385 240.214 220.448 247.048 219.885 253.601C219.51 260.341 219.979 265.864 221.291 270.171C220.916 271.294 220.26 272.043 219.323 272.417C218.385 272.979 217.448 273.447 216.511 273.821C215.573 274.196 214.73 274.758 213.98 275.507C213.417 276.443 213.324 277.94 213.699 280C210.324 278.877 206.668 278.221 202.731 278.034C198.982 277.847 195.232 277.566 191.483 277.192C187.733 277.004 184.171 276.443 180.797 275.507C177.422 274.57 174.329 272.792 171.517 270.171C170.392 254.443 171.142 238.903 173.767 223.551C176.391 208.011 180.328 192.564 185.577 177.212C190.827 161.859 197.013 146.413 204.137 130.873C211.449 115.333 219.135 99.6055 227.197 83.6911C222.885 87.9973 218.385 93.6142 213.699 100.542C209.199 107.469 204.419 115.145 199.357 123.571C194.482 131.996 189.327 140.889 183.89 150.251C178.641 159.612 173.11 168.974 167.299 178.335C161.487 187.696 155.488 196.777 149.301 205.577C143.115 214.376 136.647 222.334 129.898 229.448C127.273 229.074 125.211 227.67 123.711 225.236C122.211 222.802 120.712 220.836 119.212 219.338C116.962 221.398 114.712 221.959 112.463 221.023C110.213 220.087 107.963 218.589 105.714 216.53C103.651 214.283 101.589 212.036 99.527 209.789C97.4648 207.355 95.3088 205.67 93.0591 204.734C93.9965 200.054 95.6838 194.062 98.1209 186.76C100.558 179.271 103.37 171.314 106.557 162.889C109.744 154.463 113.213 145.945 116.962 137.332C120.712 128.719 124.274 120.856 127.648 113.741C131.21 106.627 134.491 100.729 137.49 96.0481C140.49 91.1802 142.833 88.3718 144.521 87.6229ZM118.087 153.059C119.962 152.872 120.993 154.183 121.18 156.991C121.368 159.799 121.274 162.889 120.899 166.259C120.524 169.629 120.243 172.718 120.055 175.527C119.868 178.148 120.243 179.271 121.18 178.897C122.118 170.846 124.086 162.795 127.086 154.744C130.273 146.506 133.835 138.362 137.772 130.311C141.709 122.073 145.739 113.741 149.864 105.316C153.988 96.8907 157.644 88.2782 160.831 79.4784C157.081 85.0953 153.426 91.1802 149.864 97.7332C146.302 104.099 142.74 110.558 139.178 117.111C135.616 123.477 132.054 129.749 128.492 135.928C125.117 142.106 121.649 147.817 118.087 153.059ZM191.764 214.845C193.451 208.666 195.045 202.768 196.545 197.151C198.044 191.535 199.638 185.918 201.325 180.301C203.2 174.497 205.356 168.412 207.793 162.046C210.23 155.493 213.042 148.378 216.229 140.702C219.604 132.839 223.541 124.132 228.04 114.584C232.727 104.848 238.258 93.8014 244.632 81.4443C239.382 89.4952 234.039 98.1077 228.603 107.282C223.353 116.269 218.385 125.63 213.699 135.366C209.012 145.102 204.7 155.025 200.763 165.135C197.013 175.059 194.014 184.982 191.764 194.905C193.639 194.156 194.67 194.343 194.857 195.466C195.045 196.403 194.857 197.9 194.295 199.96C193.733 202.019 193.076 204.453 192.327 207.262C191.577 209.883 191.389 212.411 191.764 214.845ZM57.0642 135.928C57.8141 133.119 59.1264 129.656 61.0011 125.537C62.8758 121.418 64.6568 117.205 66.3441 112.899C68.2189 108.405 69.8124 104.193 71.1247 100.261C72.437 96.1418 72.812 92.7716 72.2495 90.1504C71.6871 93.3333 70.3748 96.9843 68.3126 101.103C66.4379 105.035 64.4694 109.154 62.4072 113.46C60.5324 117.767 58.9389 121.886 57.6266 125.817C56.5017 129.749 56.3143 133.119 57.0642 135.928ZM46.6594 157.272C47.9717 157.272 49.1903 156.523 50.3151 155.025C51.4399 153.34 52.2836 151.468 52.846 149.408C53.5959 147.349 53.9708 145.383 53.9708 143.511C54.1583 141.638 53.9708 140.234 53.4084 139.298C52.471 142.481 51.1587 145.289 49.4715 147.723C47.9717 150.157 47.0343 153.34 46.6594 157.272ZM208.918 194.905C210.605 193.407 211.918 191.535 212.855 189.288C213.792 187.041 214.636 184.794 215.386 182.548C216.323 180.114 217.261 177.68 218.198 175.246C219.135 172.812 220.26 170.752 221.572 169.067H216.511C215.198 173.373 213.98 177.773 212.855 182.267C211.73 186.573 210.418 190.786 208.918 194.905Z" fill="#BBFF00"/>
</svg>
